ffmpeg started on 2025-05-12 at 13:17:47
Report written to "D:\Convert\FFMetrics\reports\psnr_report-6.txt"
Log level: 32
Command line:
ffmpeg -hide_banner -nostdin -i "G:\\\xc0\xed\xe8\xec\xe5\\\xce\xed\xe3\xee\xe8\xed\xe3\xe8\\!_35_\xcb\xe5\xf2\xee_2024\\DreamCast\\\xc0\xeb\xff \xe8\xed\xee\xe3\xe4\xe0 \xea\xee\xea\xe5\xf2\xed\xe8\xf7\xe0\xe5\xf2 \xf1\xee \xec\xed\xee\xe9 \xef\xee-\xf0\xf3\xf1\xf1\xea\xe8\\[DC] Roshidere - 09_Telegram_HEVC.mkv" -i "G:\\\xc0\xed\xe8\xec\xe5\\\xce\xed\xe3\xee\xe8\xed\xe3\xe8\\!_35_\xcb\xe5\xf2\xee_2024\\DreamCast\\\xc0\xeb\xff \xe8\xed\xee\xe3\xe4\xe0 \xea\xee\xea\xe5\xf2\xed\xe8\xf7\xe0\xe5\xf2 \xf1\xee \xec\xed\xee\xe9 \xef\xee-\xf0\xf3\xf1\xf1\xea\xe8\\[DC] Roshidere - 09_Telegram.mp4" -lavfi "[0:v]settb=AVTB,setpts=PTS-STARTPTS,format=pix_fmts=yuv420p10,fps=24000/1001,scale=1920:1080:flags=bicubic[main];[1:v]settb=AVTB,setpts=PTS-STARTPTS,format=pix_fmts=yuv420p,fps=24000/1001,scale=1920:1080:flags=bicubic[ref];[main][ref]psnr=eof_action=endall:stats_file='D\\:/Convert/FFMetrics/logs/psnr_logfile-6.txt'" -f null -
Input #0, matroska,webm, from 'G:\Аниме\Онгоинги\!_35_Лето_2024\DreamCast\Аля иногда кокетничает со мной по-русски\[DC] Roshidere - 09_Telegram_HEVC.mkv':
  Metadata:
    COMPATIBLE_BRANDS: isomiso2avc1mp41
    MAJOR_BRAND     : isom
    MINOR_VERSION   : 512
    ENCODER         : Lavf61.7.100
  Duration: 00:25:17.27, start: -0.021000, bitrate: 978 kb/s
  Stream #0:0: Video: hevc (Main 10), yuv420p10le(tv, bt709, progressive), 1920x1080 [SAR 1:1 DAR 16:9], 23.98 fps, 23.98 tbr, 1k tbn (default)
      Metadata:
        HANDLER_NAME    : VideoHandler
        VENDOR_ID       : [0][0][0][0]
        ENCODER         : Lavc61.19.100 libx265
        BPS             : 781931
        DURATION        : 00:25:16.514708333
        NUMBER_OF_FRAMES: 36360
        NUMBER_OF_BYTES : 148226261
        _STATISTICS_WRITING_APP: mkvpropedit v66.0.0 ('Josie') 64-bit
        _STATISTICS_WRITING_DATE_UTC: 2025-05-06 12:47:51
        _STATISTICS_TAGS: BPS DURATION NUMBER_OF_FRAMES NUMBER_OF_BYTES
  Stream #0:1: Audio: aac (LC), 48000 Hz, stereo, fltp (default)
      Metadata:
        HANDLER_NAME    : SoundHandler
        VENDOR_ID       : [0][0][0][0]
        ENCODER         : Lavc61.19.100 aac
        BPS             : 193023
        DURATION        : 00:25:17.269000000
        NUMBER_OF_FRAMES: 71123
        NUMBER_OF_BYTES : 36608568
        _STATISTICS_WRITING_APP: mkvpropedit v66.0.0 ('Josie') 64-bit
        _STATISTICS_WRITING_DATE_UTC: 2025-05-06 12:47:51
        _STATISTICS_TAGS: BPS DURATION NUMBER_OF_FRAMES NUMBER_OF_BYTES
Input #1, mov,mp4,m4a,3gp,3g2,mj2, from 'G:\Аниме\Онгоинги\!_35_Лето_2024\DreamCast\Аля иногда кокетничает со мной по-русски\[DC] Roshidere - 09_Telegram.mp4':
  Metadata:
    major_brand     : isom
    minor_version   : 512
    compatible_brands: isomiso2avc1mp41
    encoder         : Lavf60.16.100
  Duration: 00:25:17.22, start: 0.000000, bitrate: 3752 kb/s
  Stream #1:0[0x1](und): Video: h264 (High) (avc1 / 0x31637661), yuv420p(tv, bt709, progressive), 1920x1080 [SAR 1:1 DAR 16:9], 3606 kb/s, 23.98 fps, 23.98 tbr, 24k tbn (default)
      Metadata:
        handler_name    : VideoHandler
        vendor_id       : [0][0][0][0]
        encoder         : Lavc60.31.102 h264_qsv
  Stream #1:1[0x2](und): Audio: aac (HE-AACv2) (mp4a / 0x6134706D), 48000 Hz, stereo, fltp, 144 kb/s (default)
      Metadata:
        handler_name    : SoundHandler
        vendor_id       : [0][0][0][0]
Stream mapping:
  Stream #0:0 (hevc) -> settb:default
  Stream #1:0 (h264) -> settb:default
  psnr:default -> Stream #0:0 (wrapped_avframe)
  Stream #0:1 -> #0:1 (aac (native) -> pcm_s16le (native))
Output #0, null, to 'pipe:':
  Metadata:
    COMPATIBLE_BRANDS: isomiso2avc1mp41
    MAJOR_BRAND     : isom
    MINOR_VERSION   : 512
    encoder         : Lavf61.7.100
  Stream #0:0: Video: wrapped_avframe, yuv420p10le(tv, bt709, progressive), 1920x1080 [SAR 1:1 DAR 16:9], q=2-31, 200 kb/s, 23.98 fps, 23.98 tbn
      Metadata:
        encoder         : Lavc61.19.100 wrapped_avframe
  Stream #0:1: Audio: pcm_s16le, 48000 Hz, stereo, s16, 1536 kb/s (default)
      Metadata:
        HANDLER_NAME    : SoundHandler
        VENDOR_ID       : [0][0][0][0]
        _STATISTICS_TAGS: BPS DURATION NUMBER_OF_FRAMES NUMBER_OF_BYTES
        BPS             : 193023
        DURATION        : 00:25:17.269000000
        NUMBER_OF_FRAMES: 71123
        NUMBER_OF_BYTES : 36608568
        _STATISTICS_WRITING_APP: mkvpropedit v66.0.0 ('Josie') 64-bit
        _STATISTICS_WRITING_DATE_UTC: 2025-05-06 12:47:51
        encoder         : Lavc61.19.100 pcm_s16le
frame=  175 fps=0.0 q=-0.0 size=N/A time=00:00:07.29 bitrate=N/A speed=14.4x    frame=  439 fps=432 q=-0.0 size=N/A time=00:00:18.30 bitrate=N/A speed=  18x    frame=  710 fps=461 q=-0.0 size=N/A time=00:00:29.61 bitrate=N/A speed=19.2x    frame=  960 fps=465 q=-0.0 size=N/A time=00:00:40.04 bitrate=N/A speed=19.4x    frame= 1228 fps=475 q=-0.0 size=N/A time=00:00:51.21 bitrate=N/A speed=19.8x    frame= 1475 fps=474 q=-0.0 size=N/A time=00:01:01.51 bitrate=N/A speed=19.8x    frame= 1743 fps=479 q=-0.0 size=N/A time=00:01:12.69 bitrate=N/A speed=  20x    frame= 2012 fps=484 q=-0.0 size=N/A time=00:01:23.91 bitrate=N/A speed=20.2x    frame= 2292 fps=491 q=-0.0 size=N/A time=00:01:35.59 bitrate=N/A speed=20.5x    frame= 2588 fps=499 q=-0.0 size=N/A time=00:01:47.94 bitrate=N/A speed=20.8x    frame= 2857 fps=502 q=-0.0 size=N/A time=00:01:59.16 bitrate=N/A speed=20.9x    frame= 3121 fps=502 q=-0.0 size=N/A time=00:02:10.17 bitrate=N/A speed=20.9x    frame= 3385 fps=503 q=-0.0 size=N/A time=00:02:21.18 bitrate=N/A speed=  21x    frame= 3571 fps=493 q=-0.0 size=N/A time=00:02:28.94 bitrate=N/A speed=20.5x    frame= 3762 fps=485 q=-0.0 size=N/A time=00:02:36.90 bitrate=N/A speed=20.2x    frame= 3976 fps=480 q=-0.0 size=N/A time=00:02:45.83 bitrate=N/A speed=  20x    frame= 4176 fps=475 q=-0.0 size=N/A time=00:02:54.17 bitrate=N/A speed=19.8x    frame= 4379 fps=470 q=-0.0 size=N/A time=00:03:02.64 bitrate=N/A speed=19.6x    frame= 4599 fps=468 q=-0.0 size=N/A time=00:03:11.81 bitrate=N/A speed=19.5x    frame= 4767 fps=461 q=-0.0 size=N/A time=00:03:18.82 bitrate=N/A speed=19.2x    frame= 4932 fps=455 q=-0.0 size=N/A time=00:03:25.70 bitrate=N/A speed=  19x    frame= 5129 fps=451 q=-0.0 size=N/A time=00:03:33.92 bitrate=N/A speed=18.8x    frame= 5322 fps=448 q=-0.0 size=N/A time=00:03:41.97 bitrate=N/A speed=18.7x    frame= 5566 fps=449 q=-0.0 size=N/A time=00:03:52.14 bitrate=N/A speed=18.7x    frame= 5842 fps=453 q=-0.0 size=N/A time=00:04:03.66 bitrate=N/A speed=18.9x    frame= 6105 fps=455 q=-0.0 size=N/A time=00:04:14.62 bitrate=N/A speed=  19x    frame= 6367 fps=457 q=-0.0 size=N/A time=00:04:25.55 bitrate=N/A speed=  19x    frame= 6625 fps=458 q=-0.0 size=N/A time=00:04:36.31 bitrate=N/A speed=19.1x    frame= 6890 fps=460 q=-0.0 size=N/A time=00:04:47.37 bitrate=N/A speed=19.2x    frame= 7123 fps=459 q=-0.0 size=N/A time=00:04:57.08 bitrate=N/A speed=19.2x    frame= 7315 fps=457 q=-0.0 size=N/A time=00:05:05.09 bitrate=N/A speed=  19x    frame= 7583 fps=458 q=-0.0 size=N/A time=00:05:16.27 bitrate=N/A speed=19.1x    frame= 7850 fps=460 q=-0.0 size=N/A time=00:05:27.41 bitrate=N/A speed=19.2x    frame= 8133 fps=463 q=-0.0 size=N/A time=00:05:39.21 bitrate=N/A speed=19.3x    frame= 8414 fps=465 q=-0.0 size=N/A time=00:05:50.93 bitrate=N/A speed=19.4x    frame= 8699 fps=468 q=-0.0 size=N/A time=00:06:02.82 bitrate=N/A speed=19.5x    frame= 8991 fps=470 q=-0.0 size=N/A time=00:06:14.99 bitrate=N/A speed=19.6x    frame= 9264 fps=472 q=-0.0 size=N/A time=00:06:26.38 bitrate=N/A speed=19.7x    frame= 9552 fps=474 q=-0.0 size=N/A time=00:06:38.39 bitrate=N/A speed=19.8x    frame= 9825 fps=475 q=-0.0 size=N/A time=00:06:49.78 bitrate=N/A speed=19.8x    frame=10091 fps=477 q=-0.0 size=N/A time=00:07:00.87 bitrate=N/A speed=19.9x    frame=10364 fps=478 q=-0.0 size=N/A time=00:07:12.26 bitrate=N/A speed=19.9x    frame=10593 fps=477 q=-0.0 size=N/A time=00:07:21.81 bitrate=N/A speed=19.9x    frame=10867 fps=478 q=-0.0 size=N/A time=00:07:33.24 bitrate=N/A speed=19.9x    frame=11134 fps=479 q=-0.0 size=N/A time=00:07:44.42 bitrate=N/A speed=  20x    frame=11404 fps=480 q=-0.0 size=N/A time=00:07:55.64 bitrate=N/A speed=  20x    frame=11641 fps=480 q=-0.0 size=N/A time=00:08:05.52 bitrate=N/A speed=  20x    frame=11896 fps=480 q=-0.0 size=N/A time=00:08:16.16 bitrate=N/A speed=  20x    frame=12161 fps=481 q=-0.0 size=N/A time=00:08:27.21 bitrate=N/A speed=  20x    frame=12443 fps=482 q=-0.0 size=N/A time=00:08:38.97 bitrate=N/A speed=20.1x    frame=12712 fps=483 q=-0.0 size=N/A time=00:08:50.19 bitrate=N/A speed=20.1x    frame=12970 fps=483 q=-0.0 size=N/A time=00:09:00.95 bitrate=N/A speed=20.1x    frame=13203 fps=483 q=-0.0 size=N/A time=00:09:10.67 bitrate=N/A speed=20.1x    frame=13463 fps=483 q=-0.0 size=N/A time=00:09:21.51 bitrate=N/A speed=20.1x    frame=13744 fps=484 q=-0.0 size=N/A time=00:09:33.23 bitrate=N/A speed=20.2x    frame=14030 fps=485 q=-0.0 size=N/A time=00:09:45.16 bitrate=N/A speed=20.2x    frame=14306 fps=486 q=-0.0 size=N/A time=00:09:56.67 bitrate=N/A speed=20.3x    frame=14559 fps=486 q=-0.0 size=N/A time=00:10:07.23 bitrate=N/A speed=20.3x    frame=14825 fps=487 q=-0.0 size=N/A time=00:10:18.32 bitrate=N/A speed=20.3x    frame=15080 fps=487 q=-0.0 size=N/A time=00:10:28.96 bitrate=N/A speed=20.3x    frame=15353 fps=487 q=-0.0 size=N/A time=00:10:40.34 bitrate=N/A speed=20.3x    frame=15628 fps=488 q=-0.0 size=N/A time=00:10:51.81 bitrate=N/A speed=20.4x    frame=15920 fps=489 q=-0.0 size=N/A time=00:11:03.99 bitrate=N/A speed=20.4x    frame=16190 fps=490 q=-0.0 size=N/A time=00:11:15.25 bitrate=N/A speed=20.4x    frame=16466 fps=491 q=-0.0 size=N/A time=00:11:26.76 bitrate=N/A speed=20.5x    frame=16743 fps=492 q=-0.0 size=N/A time=00:11:38.32 bitrate=N/A speed=20.5x    frame=17029 fps=492 q=-0.0 size=N/A time=00:11:50.25 bitrate=N/A speed=20.5x    frame=17310 fps=493 q=-0.0 size=N/A time=00:12:01.97 bitrate=N/A speed=20.6x    frame=17594 fps=494 q=-0.0 size=N/A time=00:12:13.81 bitrate=N/A speed=20.6x    frame=17874 fps=495 q=-0.0 size=N/A time=00:12:25.49 bitrate=N/A speed=20.6x    frame=18160 fps=496 q=-0.0 size=N/A time=00:12:37.42 bitrate=N/A speed=20.7x    frame=18445 fps=496 q=-0.0 size=N/A time=00:12:49.31 bitrate=N/A speed=20.7x    frame=18714 fps=497 q=-0.0 size=N/A time=00:13:00.52 bitrate=N/A speed=20.7x    frame=19009 fps=498 q=-0.0 size=N/A time=00:13:12.83 bitrate=N/A speed=20.8x    frame=19271 fps=498 q=-0.0 size=N/A time=00:13:23.76 bitrate=N/A speed=20.8x    frame=19513 fps=497 q=-0.0 size=N/A time=00:13:33.85 bitrate=N/A speed=20.7x    frame=19758 fps=497 q=-0.0 size=N/A time=00:13:44.07 bitrate=N/A speed=20.7x    frame=20015 fps=497 q=-0.0 size=N/A time=00:13:54.79 bitrate=N/A speed=20.7x    frame=20246 fps=497 q=-0.0 size=N/A time=00:14:04.42 bitrate=N/A speed=20.7x    frame=20510 fps=497 q=-0.0 size=N/A time=00:14:15.43 bitrate=N/A speed=20.7x    frame=20779 fps=497 q=-0.0 size=N/A time=00:14:26.65 bitrate=N/A speed=20.7x    frame=21067 fps=498 q=-0.0 size=N/A time=00:14:38.66 bitrate=N/A speed=20.8x    frame=21287 fps=497 q=-0.0 size=N/A time=00:14:47.84 bitrate=N/A speed=20.7x    frame=21564 fps=497 q=-0.0 size=N/A time=00:14:59.39 bitrate=N/A speed=20.7x    frame=21818 fps=497 q=-0.0 size=N/A time=00:15:09.99 bitrate=N/A speed=20.7x    frame=22082 fps=497 q=-0.0 size=N/A time=00:15:21.00 bitrate=N/A speed=20.7x    frame=22337 fps=498 q=-0.0 size=N/A time=00:15:31.63 bitrate=N/A speed=20.8x    frame=22559 fps=497 q=-0.0 size=N/A time=00:15:40.89 bitrate=N/A speed=20.7x    frame=22822 fps=497 q=-0.0 size=N/A time=00:15:51.86 bitrate=N/A speed=20.7x    frame=23074 fps=497 q=-0.0 size=N/A time=00:16:02.37 bitrate=N/A speed=20.7x    frame=23330 fps=497 q=-0.0 size=N/A time=00:16:13.05 bitrate=N/A speed=20.7x    frame=23607 fps=497 q=-0.0 size=N/A time=00:16:24.60 bitrate=N/A speed=20.7x    frame=23875 fps=498 q=-0.0 size=N/A time=00:16:35.78 bitrate=N/A speed=20.8x    frame=24144 fps=498 q=-0.0 size=N/A time=00:16:47.00 bitrate=N/A speed=20.8x    frame=24421 fps=498 q=-0.0 size=N/A time=00:16:58.55 bitrate=N/A speed=20.8x    frame=24694 fps=498 q=-0.0 size=N/A time=00:17:09.94 bitrate=N/A speed=20.8x    frame=24967 fps=499 q=-0.0 size=N/A time=00:17:21.33 bitrate=N/A speed=20.8x    frame=25230 fps=499 q=-0.0 size=N/A time=00:17:32.30 bitrate=N/A speed=20.8x    frame=25488 fps=499 q=-0.0 size=N/A time=00:17:43.06 bitrate=N/A speed=20.8x    frame=25740 fps=499 q=-0.0 size=N/A time=00:17:53.57 bitrate=N/A speed=20.8x    frame=26002 fps=499 q=-0.0 size=N/A time=00:18:04.54 bitrate=N/A speed=20.8x    frame=26285 fps=499 q=-0.0 size=N/A time=00:18:16.30 bitrate=N/A speed=20.8x    frame=26563 fps=500 q=-0.0 size=N/A time=00:18:27.89 bitrate=N/A speed=20.8x    frame=26823 fps=500 q=-0.0 size=N/A time=00:18:38.74 bitrate=N/A speed=20.8x    frame=27091 fps=500 q=-0.0 size=N/A time=00:18:49.92 bitrate=N/A speed=20.8x    frame=27372 fps=500 q=-0.0 size=N/A time=00:19:01.64 bitrate=N/A speed=20.9x    frame=27640 fps=500 q=-0.0 size=N/A time=00:19:12.81 bitrate=N/A speed=20.9x    frame=27903 fps=501 q=-0.0 size=N/A time=00:19:23.78 bitrate=N/A speed=20.9x    frame=28162 fps=501 q=-0.0 size=N/A time=00:19:34.59 bitrate=N/A speed=20.9x    frame=28427 fps=501 q=-0.0 size=N/A time=00:19:45.64 bitrate=N/A speed=20.9x    frame=28691 fps=501 q=-0.0 size=N/A time=00:19:56.65 bitrate=N/A speed=20.9x    frame=28928 fps=500 q=-0.0 size=N/A time=00:20:06.53 bitrate=N/A speed=20.9x    frame=29211 fps=501 q=-0.0 size=N/A time=00:20:18.34 bitrate=N/A speed=20.9x    frame=29477 fps=501 q=-0.0 size=N/A time=00:20:29.43 bitrate=N/A speed=20.9x    frame=29727 fps=501 q=-0.0 size=N/A time=00:20:39.86 bitrate=N/A speed=20.9x    frame=29993 fps=501 q=-0.0 size=N/A time=00:20:50.95 bitrate=N/A speed=20.9x    frame=30240 fps=501 q=-0.0 size=N/A time=00:21:01.26 bitrate=N/A speed=20.9x    frame=30483 fps=501 q=-0.0 size=N/A time=00:21:11.39 bitrate=N/A speed=20.9x    frame=30752 fps=501 q=-0.0 size=N/A time=00:21:22.61 bitrate=N/A speed=20.9x    frame=31021 fps=501 q=-0.0 size=N/A time=00:21:33.83 bitrate=N/A speed=20.9x    frame=31276 fps=501 q=-0.0 size=N/A time=00:21:44.46 bitrate=N/A speed=20.9x    frame=31511 fps=501 q=-0.0 size=N/A time=00:21:54.27 bitrate=N/A speed=20.9x    frame=31751 fps=500 q=-0.0 size=N/A time=00:22:04.28 bitrate=N/A speed=20.9x    frame=32003 fps=500 q=-0.0 size=N/A time=00:22:14.79 bitrate=N/A speed=20.9x    frame=32266 fps=500 q=-0.0 size=N/A time=00:22:25.76 bitrate=N/A speed=20.9x    frame=32534 fps=500 q=-0.0 size=N/A time=00:22:36.93 bitrate=N/A speed=20.9x    frame=32784 fps=500 q=-0.0 size=N/A time=00:22:47.36 bitrate=N/A speed=20.9x    frame=33043 fps=500 q=-0.0 size=N/A time=00:22:58.16 bitrate=N/A speed=20.9x    frame=33271 fps=500 q=-0.0 size=N/A time=00:23:07.67 bitrate=N/A speed=20.8x    frame=33535 fps=500 q=-0.0 size=N/A time=00:23:18.68 bitrate=N/A speed=20.8x    frame=33778 fps=500 q=-0.0 size=N/A time=00:23:28.82 bitrate=N/A speed=20.8x    frame=34021 fps=499 q=-0.0 size=N/A time=00:23:38.95 bitrate=N/A speed=20.8x    frame=34235 fps=499 q=-0.0 size=N/A time=00:23:47.88 bitrate=N/A speed=20.8x    frame=34386 fps=497 q=-0.0 size=N/A time=00:23:54.18 bitrate=N/A speed=20.7x    frame=34559 fps=496 q=-0.0 size=N/A time=00:24:01.39 bitrate=N/A speed=20.7x    frame=34712 fps=495 q=-0.0 size=N/A time=00:24:07.77 bitrate=N/A speed=20.6x    frame=34886 fps=493 q=-0.0 size=N/A time=00:24:15.03 bitrate=N/A speed=20.6x    frame=35075 fps=493 q=-0.0 size=N/A time=00:24:22.91 bitrate=N/A speed=20.5x    frame=35276 fps=492 q=-0.0 size=N/A time=00:24:31.30 bitrate=N/A speed=20.5x    frame=35468 fps=491 q=-0.0 size=N/A time=00:24:39.31 bitrate=N/A speed=20.5x    frame=35654 fps=490 q=-0.0 size=N/A time=00:24:47.06 bitrate=N/A speed=20.4x    frame=35818 fps=489 q=-0.0 size=N/A time=00:24:53.90 bitrate=N/A speed=20.4x    frame=35986 fps=488 q=-0.0 size=N/A time=00:25:00.91 bitrate=N/A speed=20.3x    frame=36134 fps=486 q=-0.0 size=N/A time=00:25:07.08 bitrate=N/A speed=20.3x    frame=36311 fps=485 q=-0.0 size=N/A time=00:25:14.47 bitrate=N/A speed=20.2x    [Parsed_psnr_10 @ 0000020452c88b00] PSNR y:48.261061 u:50.475217 v:49.700992 average:48.784760 min:40.326707 max:inf
[out#0/null @ 0000020452d0e900] video:15623KiB audio:284492KiB subtitle:0KiB other streams:0KiB global headers:0KiB muxing overhead: unknown
frame=36360 fps=485 q=-0.0 Lsize=N/A time=00:25:16.51 bitrate=N/A speed=20.2x    
